<?xml version="1.0" encoding="UTF-8"?>
<svg width="32" height="32" viewBox="0 0 32 32" fill="none" xmlns="http://www.w3.org/2000/svg">
  <!-- Background circle with gradient -->
  <defs>
    <linearGradient id="bgGradient" x1="0%" y1="0%" x2="100%" y2="100%">
      <stop offset="0%" style="stop-color:#4F46E5;stop-opacity:1" />
      <stop offset="100%" style="stop-color:#7C3AED;stop-opacity:1" />
    </linearGradient>
    <linearGradient id="bookGradient" x1="0%" y1="0%" x2="100%" y2="100%">
      <stop offset="0%" style="stop-color:#FBBF24;stop-opacity:1" />
      <stop offset="100%" style="stop-color:#F59E0B;stop-opacity:1" />
    </linearGradient>
  </defs>
  
  <!-- Background circle -->
  <circle cx="16" cy="16" r="15" fill="url(#bgGradient)" stroke="#E5E7EB" stroke-width="1"/>
  
  <!-- Book/Story element -->
  <path d="M8 6 C8 5.5 8.5 5 9 5 L23 5 C23.5 5 24 5.5 24 6 L24 26 C24 26.5 23.5 27 23 27 L9 27 C8.5 27 8 26.5 8 26 Z" 
        fill="url(#bookGradient)" stroke="#D97706" stroke-width="0.5"/>
  
  <!-- Book spine -->
  <line x1="11" y1="5" x2="11" y2="27" stroke="#D97706" stroke-width="1"/>
  
  <!-- Logic symbols (mathematical/logical elements) -->
  <!-- Plus symbol -->
  <g fill="white" font-family="Arial, sans-serif" font-size="8" font-weight="bold">
    <text x="14" y="12" text-anchor="middle">+</text>
    
    <!-- Mathematical symbols -->
    <circle cx="18" cy="14" r="0.8" fill="white"/>
    <path d="M17.2 14 L18.8 14 M18 13.2 L18 14.8" stroke="#4F46E5" stroke-width="0.4"/>
    
    <!-- Story elements (small decorative dots) -->
    <circle cx="13" cy="18" r="0.6" fill="white" opacity="0.9"/>
    <circle cx="16" cy="20" r="0.6" fill="white" opacity="0.9"/>
    <circle cx="19" cy="18" r="0.6" fill="white" opacity="0.9"/>
  </g>
  
  <!-- Brain/Logic icon overlay -->
  <path d="M16 8 C18.5 8 20.5 10 20.5 12.5 C20.5 13.5 20.2 14.4 19.7 15.2 C19.5 15.6 19.2 16 18.8 16.3 C18.5 16.5 18.2 16.6 17.8 16.6 L14.2 16.6 C13.8 16.6 13.5 16.5 13.2 16.3 C12.8 16 12.5 15.6 12.3 15.2 C11.8 14.4 11.5 13.5 11.5 12.5 C11.5 10 13.5 8 16 8 Z" 
        fill="rgba(255,255,255,0.2)" stroke="rgba(255,255,255,0.4)" stroke-width="0.5"/>
  
  <!-- Small "LS" text at bottom -->
  <text x="16" y="25" text-anchor="middle" fill="white" font-family="Arial, sans-serif" font-size="6" font-weight="bold" opacity="0.9">LS</text>
</svg>